<?xml version="1.0" encoding="UTF-8" standalone="no"?>
<!-- Created with Inkscape (http://www.inkscape.org/) -->

<svg
   width="142.00868mm"
   height="142.00868mm"
   viewBox="0 0 142.00868 142.00868"
   version="1.1"
   id="svg5"
   xmlns="http://www.w3.org/2000/svg"
   xmlns:svg="http://www.w3.org/2000/svg">
  <defs
     id="defs2" />
  <g
     id="layer1"
     transform="translate(-32.830938,-40.295553)">
    <g
       id="g902"
       transform="matrix(1.9560424,0,0,1.9560424,30.483686,37.948301)">
      <circle
         cx="37.5"
         cy="37.5"
         r="35.799999"
         fill="#302e31"
         stroke="#ffffff"
         strokeWidth="3.47"
         id="circle890" />
      <path
         d="M 19.3,18.7 C 20.4,13.39 24,8.6 28.84,6.2 27.998,7.055 26.98,7.71 26.2,8.64 c -3.19,3.44 -4.63,8.42 -3.75,13 1.11,6.99 7.68,12.7 14.8,12.6 5.52,0.247 10.9,-2.93 13.6,-7.72 5.78,0.196 11.4,3.18 14.7,7.97 1.69,2.5 3.01,5.43 3.1,8.48 -1.07,-4.05 -3.76,-7.65 -7.43,-9.68 -3.55,-2 -7.91,-2.51 -11.8,-1.33 -4.88,1.4 -8.91,5.39 -10.3,10.3 -1.18,3.91 -0.675,8.22 1.18,11.8 -2.58,4.47 -7.24,7.66 -12.3,8.62 -3.89,0.816 -7.98,0.186 -11.6,-1.45 3.24,0.945 6.76,1.11 9.98,-0.0353 4.32,-1.43 7.89,-4.9 9.46,-9.18 1.74,-4.66 1.08,-10.2 -1.85,-14.2 -2.19,-3.15 -5.64,-5.37 -9.39,-6.16 -1.19,-0.212 -2.39,-0.308 -3.59,-0.418 -1.91,-3.85 -2.61,-8.32 -1.65,-12.5 z"
         fill="#c4c2c4"
         id="path892" />
    </g>
    <path
       d="m 74.587684,75.886606 -4.61908,12.31792 v 49.265784 h 16.928733 v 9.24287 h 9.2424 l 9.233183,-9.24287 h 13.85368 l 18.47535,-18.46873 V 75.886606 Z m 6.153883,6.15507 H 131.54547 V 115.9159 l -10.77886,10.77956 h -16.93133 l -9.230593,9.23012 v -9.23012 h -13.86312 z m 16.93553,30.798864 h 6.158133 V 94.366136 h -6.158133 z m 16.932513,0 h 6.15695 V 94.366136 h -6.15695 z"
       id="path904"
       style="fill:#6441a5;fill-opacity:1;stroke-width:0.264583" />
  </g>
</svg>
